# xmcd
#
# Track frame offsets:
#	150
#	8283
#	19735
#	27853
#	52588
#	84477
#	102283
#	121142
#	136544
#	152687
#	170532
#	198219
#
# Disc length: 2815 seconds
#
# Revision: 0
# Processed by: cddbd v1.5.2PL0 Copyright (c) Steve Scherf et al.
# Submitted via: dBpowerAMP V4.0
#
DISCID=770afd0c
DTITLE=Paulo Gazela - Singin' Good Ol'Songs with Good Ol'Friends
DYEAR=2011
DGENRE=Blues
TTITLE0=Hard Times Killing Floor
TTITLE1=Peach Tree
TTITLE2=A Bug In My Computer
TTITLE3=Singin' Good Ol'Songs (With Good Ol'Friends)
TTITLE4=T-Bone in the Morning
TTITLE5=You Better Think
TTITLE6=Dockery Farms
TTITLE7=My Baby Says
TTITLE8=Just You And Me
TTITLE9=Lucky Charm
TTITLE10=Rising with the Sun
TTITLE11=Singin' Good Ol'Songs (parte 2)
EXTD=
EXTT0=
EXTT1=
EXTT2=
EXTT3=
EXTT4=
EXTT5=
EXTT6=
EXTT7=
EXTT8=
EXTT9=
EXTT10=
EXTT11=
PLAYORDER=
